<svg width="306.982" height="76.953" viewBox="0 0 306.982 76.953" xmlns="http://www.w3.org/2000/svg"><g id="svgGroup" stroke-linecap="round" fill-rule="evenodd" font-size="9pt" stroke="#FFFEFE" stroke-width="0.25mm" fill="#FFFEFE" style="stroke:#FFFEFE;stroke-width:0.25mm;fill:#FFFEFE"><path d="M 66.064 75.977 L 53.613 75.977 L 46.631 56.152 L 19.336 56.152 L 12.354 75.977 L 0 75.977 L 26.563 4.297 L 39.551 4.297 L 66.064 75.977 Z M 306.982 67.139 L 306.982 75.977 L 265.918 75.977 L 265.918 68.896 L 293.213 30.762 L 267.578 30.762 L 267.578 21.924 L 306.201 21.924 L 306.201 29.736 L 279.443 67.139 L 306.982 67.139 Z M 183.691 39.6 L 183.691 75.977 L 175.537 75.977 L 173.34 68.311 L 172.949 68.311 Q 170.654 71.24 168.213 73.145 Q 165.771 75.049 162.573 76.001 Q 159.375 76.953 154.785 76.953 Q 149.951 76.953 146.143 75.171 Q 142.334 73.389 140.137 69.727 Q 137.939 66.064 137.939 60.449 Q 137.939 52.1 144.165 47.9 Q 150.391 43.701 162.988 43.262 L 172.363 42.92 L 172.363 40.088 Q 172.363 34.473 169.751 32.08 Q 167.139 29.688 162.402 29.688 Q 158.35 29.688 154.541 30.859 Q 150.732 32.031 147.119 33.74 L 143.408 25.635 Q 147.363 23.535 152.417 22.217 Q 157.471 20.898 162.939 20.898 Q 173.193 20.898 178.442 25.439 Q 183.691 29.98 183.691 39.6 Z M 130.762 66.26 L 130.762 74.951 Q 128.857 75.781 125.83 76.367 Q 122.803 76.953 119.531 76.953 Q 114.941 76.953 111.279 75.415 Q 107.617 73.877 105.469 70.117 Q 103.32 66.357 103.32 59.717 L 103.32 30.664 L 95.947 30.664 L 95.947 25.537 L 103.857 21.484 L 107.617 9.912 L 114.844 9.912 L 114.844 21.924 L 130.322 21.924 L 130.322 30.664 L 114.844 30.664 L 114.844 59.57 Q 114.844 63.672 116.895 65.674 Q 118.945 67.676 122.314 67.676 Q 124.561 67.676 126.758 67.261 Q 128.955 66.846 130.762 66.26 Z M 260.791 21.436 L 259.717 32.178 Q 258.691 31.885 257.202 31.738 Q 255.713 31.592 254.541 31.592 Q 251.465 31.592 248.682 32.593 Q 245.898 33.594 243.75 35.62 Q 241.602 37.646 240.381 40.674 Q 239.16 43.701 239.16 47.705 L 239.16 75.977 L 227.637 75.977 L 227.637 21.924 L 236.621 21.924 L 238.184 31.445 L 238.721 31.445 Q 240.332 28.564 242.725 26.172 Q 245.117 23.779 248.218 22.339 Q 251.318 20.898 255.029 20.898 Q 256.396 20.898 258.008 21.045 Q 259.619 21.191 260.791 21.436 Z M 85.84 0 L 85.84 75.977 L 74.316 75.977 L 74.316 0 L 85.84 0 Z M 199.756 21.924 L 211.23 21.924 L 211.23 75.977 L 199.756 75.977 L 199.756 21.924 Z M 22.607 46.094 L 29.443 26.563 Q 29.785 25.391 30.444 23.242 Q 31.104 21.094 31.812 18.628 Q 32.52 16.162 33.008 14.16 Q 33.496 15.82 34.229 18.237 Q 34.961 20.654 35.693 22.974 Q 36.426 25.293 36.816 26.563 L 43.604 46.094 L 22.607 46.094 Z M 172.314 54.834 Q 172.314 61.426 168.384 64.819 Q 164.453 68.213 158.496 68.213 Q 154.59 68.213 152.197 66.382 Q 149.805 64.551 149.805 60.547 Q 149.805 55.957 153.271 53.32 Q 156.738 50.684 165.332 50.391 L 172.314 50.146 L 172.314 54.834 Z M 205.566 1.221 Q 208.203 1.221 210.132 2.637 Q 212.061 4.053 212.061 7.52 Q 212.061 10.938 210.132 12.378 Q 208.203 13.818 205.566 13.818 Q 202.832 13.818 200.952 12.378 Q 199.072 10.938 199.072 7.52 Q 199.072 4.053 200.952 2.637 Q 202.832 1.221 205.566 1.221 Z" vector-effect="non-scaling-stroke"/></g></svg>